<?xml version="1.0" standalone="no"?>
<svg xmlns="http://www.w3.org/2000/svg" viewBox="0 0 125 68" width="125" height="68"><g fill="#ead017" color="#ead017" transform="translate(40.28 0) scale(0.88) "><svg width="50.0" height="42.0" x="0.0" y="0.0" viewBox="0 0 50 42"><path fill="currentColor" fill-rule="nonzero" d="M21.3 13.56l5.81 12.46-10.95-2.3-5.81-12.46 10.95 2.3zm20.86-9.73l5.81 12.46-10.95-2.3-5.81-12.46 10.95 2.3zm-8.91 36.83L8.44 36.19 16 24.99l12.1 2.54c.05.01.09.01.13.01.09 0 .18-.02.27-.06.01 0 .01-.01.01-.01.03-.01.05-.04.08-.06.03-.02.05-.05.08-.07.03-.03.07-.05.09-.08l8.11-12.01 11.19 2.35-14.81 23.06zm16.45-23.3c.01-.02.02-.03.03-.05.01-.05-.02-.08-.03-.13 0-.07.01-.13-.02-.2-.01-.02.01-.05-.01-.07L43.19 3c-.01-.02-.03-.02-.03-.03-.04-.07-.11-.11-.18-.16-.07-.05-.12-.11-.2-.14-.02-.01-.02-.02-.04-.03L30.22.01c-.04-.01-.08.03-.13.03-.07 0-.13 0-.19.02-.03.01-.06-.01-.08 0-.01.01-.02.03-.03.03-.05.03-.08.07-.12.12-.03.03-.08.03-.11.07l-8.11 12.01-12.1-2.54c-.05-.01-.08.02-.13.02-.07 0-.12 0-.19.02-.03.01-.06-.01-.08.01-.02.01-.02.03-.03.03-.05.03-.08.07-.12.12-.03.03-.08.03-.11.07L.34 22.37c-.02.02 0 .05-.02.08-.04.08-.04.15-.05.23-.01.08-.02.16.01.24.02.03 0 .05.01.08l6.49 13.91c.01.02.03.03.05.05.02.04.04.06.07.09.03.03.05.06.08.08.01.01.01.03.02.04 0 0 .01 0 .01.01.05.03.11.04.17.05.03.01.04.04.06.04l26.2 4.72a.61.61 0 0 0 .48-.12c.03-.02.05-.05.08-.07.03-.03.07-.05.1-.09l15.54-24.18c.02-.02 0-.05.01-.07.02-.04.03-.07.05-.1z"></path></svg></g><path fill="#9b9b9b" fill-rule="nonzero" d="M12.89 10.32L12.89 10.32L12.91 12.17Q12.82 13.92 12.48 15.12Q12.14 16.32 11.16 17.30L11.16 17.30Q9.53 18.94 6.41 18.94L6.41 18.94Q2.74 18.94 1.37 17.96Q0 16.99 0 14.45L0 14.45L0 1.85L6.65 1.85Q9.53 1.85 11.16 3.48L11.16 3.48Q12.48 4.80 12.72 6.70L12.72 6.70Q12.89 8.04 12.89 10.32ZM8.83 14.90Q9.29 14.35 9.42 13.38Q9.55 12.41 9.55 10.34Q9.55 8.28 9.42 7.36Q9.29 6.43 8.83 5.88L8.83 5.88Q7.97 4.82 6.34 4.82L6.34 4.82L3.34 4.82L3.34 14.28Q3.34 15.24 3.98 15.60Q4.63 15.96 6.30 15.96Q7.97 15.96 8.83 14.90L8.83 14.90ZM27.07 15.96L27.07 18.94L21.02 18.94Q18.14 18.94 16.98 17.94Q15.82 16.94 15.82 14.42L15.82 14.42L15.82 1.85L27.07 1.85L27.07 4.82L19.15 4.82L19.15 8.83L24.70 8.83L24.46 11.81L19.15 11.81L19.15 14.18Q19.15 15.19 19.61 15.58Q20.06 15.96 21.26 15.96L21.26 15.96L27.07 15.96ZM38.74 1.85L42.22 1.85L36.84 17.98Q36.41 19.08 35.30 19.08L35.30 19.08Q34.15 19.08 33.72 17.98L33.72 17.98L28.42 1.85L31.87 1.85L35.30 12.98L38.74 1.85ZM53.45 15.14L53.45 15.14L53.45 15.50Q53.30 17.30 51.92 18.22Q50.54 19.13 48.48 19.13L48.48 19.13Q45.43 19.13 44.21 18.02L44.21 18.02Q43.08 17.02 43.08 15.05L43.08 15.05L43.08 14.76L45.91 14.76Q45.91 15.86 46.49 16.27Q47.06 16.68 48.48 16.68L48.48 16.68Q50.40 16.68 50.40 15.29L50.40 15.29Q50.40 14.14 49.73 13.75L49.73 13.75Q49.42 13.56 48.94 13.46L48.94 13.46L46.51 13.06Q43.34 12.55 43.34 9.10L43.34 9.10Q43.34 7.18 44.75 6.11Q46.15 5.04 48.31 5.04L48.31 5.04Q53.23 5.04 53.23 9.29L53.23 9.29L53.23 9.60L50.52 9.60Q50.47 8.47 49.92 8.06Q49.37 7.66 48.37 7.66Q47.38 7.66 46.87 8.05Q46.37 8.45 46.37 8.93L46.37 8.93Q46.37 10.30 47.47 10.49L47.47 10.49L50.38 11.02Q53.45 11.59 53.45 15.14ZM67.01 11.71L67.01 11.71Q67.01 17.06 64.25 18.55L64.25 18.55Q63.12 19.15 61.49 19.15L61.49 19.15L59.18 17.66L59.18 23.02L56.06 23.02L56.06 5.33L62.21 5.33Q64.99 5.33 66 6.90Q67.01 8.47 67.01 11.71ZM63.89 12.19L63.89 12.19Q63.89 8.14 61.30 8.14L61.30 8.14L59.18 8.14L59.18 14.50L61.30 15.86Q62.69 15.86 63.29 14.99Q63.89 14.11 63.89 12.19ZM71.09 0Q72.22 0 72.55 0.35Q72.89 0.70 72.89 1.81Q72.89 2.93 72.54 3.28Q72.19 3.62 71.08 3.62Q69.96 3.62 69.61 3.26Q69.26 2.90 69.26 1.80Q69.26 0.70 69.61 0.35Q69.96 0 71.09 0ZM72.62 5.74L72.62 18.94L69.50 18.94L69.50 5.74L72.62 5.74ZM86.74 9.74L86.74 18.94L83.62 18.94L83.62 10.18Q83.62 9 83.14 8.57Q82.66 8.14 81.79 8.14L81.79 8.14L78.98 9.31L78.98 18.94L75.86 18.94L75.86 5.23L78.19 5.23L78.91 6.86L82.75 5.09Q84.36 5.09 85.55 6.28Q86.74 7.46 86.74 9.74L86.74 9.74ZM99.29 5.14L99.29 18.94L97.20 18.94L96.24 17.28L92.90 19.08Q90.12 19.08 89.16 17.06L89.16 17.06Q88.68 16.08 88.50 14.94Q88.32 13.80 88.32 12.56Q88.32 11.33 88.34 10.74Q88.37 10.15 88.46 9.37Q88.56 8.59 88.74 8.06Q88.92 7.54 89.26 6.97Q89.59 6.41 90.07 6.07L90.07 6.07Q91.15 5.33 92.88 5.33L92.88 5.33L96.17 5.33L99.29 5.14ZM93.79 15.79L96.17 14.57L96.17 8.14L93.79 8.14Q92.47 8.14 91.96 9.14Q91.44 10.15 91.44 12.16Q91.44 14.16 91.93 14.98Q92.42 15.79 93.79 15.79L93.79 15.79ZM109.68 13.92L109.68 13.92L112.51 13.90Q112.49 14.09 112.46 14.59Q112.44 15.10 112.43 15.28Q112.42 15.46 112.37 15.84Q112.32 16.22 112.26 16.40Q112.20 16.58 112.10 16.87L112.10 16.87Q111.67 18.12 109.75 18.84L109.75 18.84Q108.53 19.27 107.20 19.27Q105.86 19.27 104.78 18.84Q103.70 18.41 103.08 17.74L103.08 17.74Q101.66 16.25 101.66 12.16Q101.66 8.06 103.08 6.58L103.08 6.58Q103.70 5.90 104.78 5.47Q105.86 5.04 107.18 5.04L107.18 5.04Q109.78 5.04 111.12 6.34Q112.46 7.63 112.46 9.94L112.46 9.94L109.63 9.94Q109.63 8.88 109.10 8.36Q108.58 7.85 107.15 7.85Q105.72 7.85 105.25 8.74Q104.78 9.62 104.78 11.40L104.78 11.40L104.78 12.65Q104.78 15.50 105.89 16.15L105.89 16.15Q106.39 16.46 107.21 16.46Q108.02 16.46 108.54 16.31Q109.06 16.15 109.28 15.77Q109.51 15.38 109.58 15.01Q109.66 14.64 109.68 13.92ZM124.56 5.14L124.56 18.94L122.47 18.94L121.51 17.28L118.18 19.08Q115.39 19.08 114.43 17.06L114.43 17.06Q113.95 16.08 113.77 14.94Q113.59 13.80 113.59 12.56Q113.59 11.33 113.62 10.74Q113.64 10.15 113.74 9.37Q113.83 8.59 114.01 8.06Q114.19 7.54 114.53 6.97Q114.86 6.41 115.34 6.07L115.34 6.07Q116.42 5.33 118.15 5.33L118.15 5.33L121.44 5.33L124.56 5.14ZM119.06 15.79L121.44 14.57L121.44 8.14L119.06 8.14Q117.74 8.14 117.23 9.14Q116.71 10.15 116.71 12.16Q116.71 14.16 117.20 14.98Q117.70 15.79 119.06 15.79L119.06 15.79Z" transform="translate(0, 44.96)"></path></svg>